<?xml version="1.0" standalone="no"?>
<!DOCTYPE svg PUBLIC "-//W3C//DTD SVG 20010904//EN"
 "http://www.w3.org/TR/2001/REC-SVG-20010904/DTD/svg10.dtd">
<svg version="1.0" xmlns="http://www.w3.org/2000/svg"
 width="208.000000pt" height="187.000000pt" viewBox="0 0 208.000000 187.000000"
 preserveAspectRatio="xMidYMid meet">

<g transform="translate(0.000000,187.000000) scale(0.100000,-0.100000)"
fill="#000000" stroke="none">
<path d="M945 1859 c-79 -12 -117 -25 -200 -68 -99 -51 -210 -163 -258 -261
-60 -122 -67 -167 -74 -449 l-6 -253 -45 6 c-90 12 -145 67 -157 156 l-7 50
-100 0 -101 0 7 -61 c9 -79 39 -158 80 -212 35 -46 117 -100 181 -120 30 -9
223 -12 770 -12 675 0 734 1 781 18 148 52 231 159 250 326 l7 61 -100 0 -99
0 -13 -62 c-15 -73 -55 -120 -116 -137 -84 -23 -81 -28 -88 126 -4 75 -7 191
-7 259 0 143 -23 235 -87 343 -53 89 -164 191 -255 234 -108 52 -248 74 -363
56z m212 -214 c28 -8 78 -34 112 -56 115 -77 174 -195 184 -366 l5 -83 -421 0
-422 0 3 92 c8 197 99 334 270 404 69 28 191 32 269 9z m293 -760 l0 -55 -415
0 -415 0 0 55 0 55 415 0 415 0 0 -55z"/>
<path d="M830 105 l0 -105 205 0 205 0 0 105 0 105 -205 0 -205 0 0 -105z"/>
</g>
</svg>
